<?xml version="1.0" encoding="UTF-8"?>
<svg xmlns="http://www.w3.org/2000/svg" xmlns:xlink="http://www.w3.org/1999/xlink" width="841.89pt" height="595.276pt" viewBox="0 0 841.89 595.276" version="1.1">
<g id="surface1">
<path style=" stroke:none;fill-rule:nonzero;fill:rgb(100%,100%,100%);fill-opacity:1;" d="M 0 595.277344 L 841.890625 595.277344 L 841.890625 0 L 0 0 Z M 0 595.277344 "/>
<path style=" stroke:none;fill-rule:nonzero;fill:rgb(93.299866%,22.399902%,20.799255%);fill-opacity:1;" d="M 493.621094 169.75 C 494.898438 169.207031 496.214844 168.75 497.5625 168.4375 C 503.40625 167.082031 509.78125 167.972656 515.28125 171.417969 C 520.777344 174.855469 524.355469 180.191406 525.707031 186.054688 C 527.042969 191.902344 526.171875 198.285156 522.734375 203.78125 C 519.292969 209.28125 513.929688 212.851563 508.089844 214.207031 C 502.230469 215.550781 495.859375 214.667969 490.367188 211.226563 C 486.824219 209.011719 484.179688 205.964844 482.3125 202.542969 L 478.316406 204.386719 C 480.523438 208.542969 483.800781 212.199219 488.082031 214.882813 C 494.578125 218.945313 502.117188 219.996094 509.039063 218.394531 C 515.980469 216.808594 522.304688 212.566406 526.378906 206.0625 C 530.445313 199.554688 531.5 192.015625 529.886719 185.078125 C 528.304688 178.15625 524.066406 171.835938 517.566406 167.761719 C 511.867188 164.199219 505.386719 162.945313 499.210938 163.761719 L 491.566406 166.414063 "/>
<path style=" stroke:none;fill-rule:nonzero;fill:rgb(93.299866%,22.399902%,20.799255%);fill-opacity:1;" d="M 479.015625 229.367188 C 489.511719 235.9375 501.691406 237.632813 512.882813 235.054688 C 524.078125 232.480469 534.289063 225.636719 540.867188 215.128906 C 547.441406 204.625 549.132813 192.445313 546.554688 181.253906 C 544.972656 174.382813 541.769531 167.886719 537.105469 162.367188 L 525.164063 154.757813 L 522.261719 155.761719 C 522.964844 156.148438 523.664063 156.503906 524.351563 156.929688 C 533.84375 162.875 540.039063 172.105469 542.351563 182.214844 C 544.675781 192.328125 543.15625 203.347656 537.207031 212.84375 C 531.265625 222.335938 522.027344 228.527344 511.90625 230.851563 C 501.808594 233.191406 490.792969 231.65625 481.300781 225.714844 C 473.523438 220.851563 468.023438 213.785156 464.984375 205.84375 L 460.296875 205.675781 C 460.308594 205.691406 460.3125 205.710938 460.316406 205.722656 L 460.507813 205.820313 L 460.355469 205.816406 C 463.5625 215.238281 469.90625 223.667969 479.015625 229.367188 "/>
<path style=" stroke:none;fill-rule:nonzero;fill:rgb(93.299866%,22.399902%,20.799255%);fill-opacity:1;" d="M 547.867188 233.878906 L 550.136719 241.054688 L 550.136719 224.152344 C 541.679688 236.351563 529.300781 244.398438 515.746094 247.511719 C 501.367188 250.824219 485.730469 248.65625 472.230469 240.207031 C 464.1875 235.171875 457.855469 228.457031 453.3125 220.824219 L 452.59375 226.609375 L 452.589844 226.609375 L 452.488281 227.433594 L 452.570313 227.5625 C 457.003906 233.714844 462.644531 239.144531 469.40625 243.476563 L 468.445313 252.101563 L 472.152344 257.835938 L 473.492188 245.832031 C 475.101563 246.703125 476.730469 247.484375 478.386719 248.195313 L 477.945313 266.792969 L 482.113281 273.238281 L 482.664063 249.882813 C 484.316406 250.449219 485.972656 250.972656 487.648438 251.398438 L 490.867188 286.765625 L 495.917969 294.570313 L 492.066406 252.332031 C 494.351563 252.734375 496.648438 253.039063 498.945313 253.183594 L 507.476563 312.445313 L 513.089844 321.117188 L 503.320313 253.238281 C 505.226563 253.226563 507.128906 253.113281 509.019531 252.925781 L 526.128906 341.269531 L 532.40625 350.984375 L 513.308594 252.328125 C 514.445313 252.132813 515.59375 251.976563 516.71875 251.714844 C 517.777344 251.472656 518.816406 251.132813 519.859375 250.828125 L 546.71875 373.117188 L 550.136719 378.394531 L 550.136719 368.53125 L 523.992188 249.503906 C 526.035156 248.765625 528.03125 247.90625 529.988281 246.953125 L 550.136719 330.574219 L 550.136719 312.128906 L 533.9375 244.890625 C 535.621094 243.917969 537.265625 242.867188 538.855469 241.730469 L 550.136719 281.730469 L 550.136719 265.820313 L 542.714844 239.507813 C 542.65625 239.296875 542.539063 239.128906 542.429688 238.953125 C 544.328125 237.378906 546.152344 235.699219 547.867188 233.878906 "/>
<path style=" stroke:none;fill-rule:nonzero;fill:rgb(93.299866%,22.399902%,20.799255%);fill-opacity:1;" d="M 519.8125 164.179688 C 527.304688 168.867188 532.1875 176.148438 534.023438 184.140625 C 535.867188 192.125 534.65625 200.808594 529.960938 208.308594 C 525.269531 215.800781 517.988281 220.691406 509.996094 222.527344 C 502.011719 224.359375 493.324219 223.152344 485.835938 218.46875 C 480.824219 215.332031 477.019531 211.035156 474.472656 206.160156 L 474.425781 206.183594 L 469.585938 206.007813 C 472.421875 212.433594 477.140625 218.105469 483.550781 222.117188 C 492.046875 227.433594 501.898438 228.804688 510.964844 226.722656 C 520.019531 224.632813 528.296875 219.101563 533.621094 210.59375 C 538.941406 202.09375 540.308594 192.230469 538.226563 183.171875 C 536.136719 174.109375 530.59375 165.847656 522.101563 160.527344 C 520.3125 159.410156 518.464844 158.507813 516.585938 157.734375 L 509.792969 160.09375 C 513.246094 160.863281 516.632813 162.191406 519.8125 164.179688 "/>
<path style=" stroke:none;fill-rule:nonzero;fill:rgb(93.299866%,22.399902%,20.799255%);fill-opacity:1;" d="M 497.148438 200.390625 C 499.597656 201.921875 502.421875 202.335938 505.046875 201.78125 C 505.097656 201.773438 505.164063 201.761719 505.21875 201.746094 C 507.890625 201.136719 510.332031 199.507813 511.898438 197.003906 C 513.429688 194.554688 513.839844 191.722656 513.277344 189.09375 C 513.269531 189.03125 513.257813 188.976563 513.246094 188.921875 C 512.628906 186.25 511.003906 183.816406 508.503906 182.253906 C 506.050781 180.722656 503.210938 180.296875 500.597656 180.855469 C 500.554688 180.863281 500.511719 180.875 500.464844 180.878906 L 502.960938 184.9375 C 504.074219 184.964844 505.195313 185.257813 506.21875 185.902344 C 507.714844 186.835938 508.6875 188.296875 509.046875 189.882813 L 509.085938 190.015625 C 509.410156 191.574219 509.15625 193.257813 508.242188 194.714844 C 507.308594 196.207031 505.855469 197.191406 504.25 197.550781 L 504.125 197.582031 C 502.5625 197.902344 500.886719 197.652344 499.433594 196.742188 C 498.828125 196.363281 498.335938 195.882813 497.902344 195.359375 L 493.910156 197.199219 C 494.730469 198.445313 495.804688 199.550781 497.148438 200.390625 "/>
<path style=" stroke:none;fill-rule:nonzero;fill:rgb(93.299866%,22.399902%,20.799255%);fill-opacity:1;" d="M 474.480469 236.613281 C 486.972656 244.429688 501.480469 246.453125 514.800781 243.390625 C 528.117188 240.3125 540.285156 232.175781 548.113281 219.664063 C 548.855469 218.476563 549.5 217.253906 550.136719 216.03125 L 550.136719 202.769531 C 549.171875 207.785156 547.378906 212.707031 544.453125 217.375 C 537.257813 228.875 526.078125 236.367188 513.835938 239.1875 C 501.574219 241.996094 488.253906 240.148438 476.765625 232.960938 C 466.328125 226.425781 459.238281 216.617188 455.894531 205.699219 L 455.214844 205.679688 L 454.234375 213.5 C 458.425781 222.703125 465.253906 230.839844 474.480469 236.613281 "/>
<path style=" stroke:none;fill-rule:nonzero;fill:rgb(93.299866%,22.399902%,20.799255%);fill-opacity:1;" d="M 550.136719 184.121094 L 550.136719 170.664063 L 548.988281 169.933594 L 544.632813 167.15625 C 546.800781 171.410156 548.386719 175.964844 549.46875 180.632813 C 549.734375 181.785156 549.933594 182.953125 550.136719 184.121094 "/>
<path style=" stroke:none;fill-rule:nonzero;fill:rgb(93.299866%,22.399902%,20.799255%);fill-opacity:1;" d="M 513.039063 175.007813 C 508.523438 172.179688 503.308594 171.460938 498.503906 172.5625 L 498.503906 172.566406 L 498.5 172.570313 C 497.605469 172.777344 496.746094 173.113281 495.890625 173.441406 L 498.1875 177.179688 C 498.617188 177.039063 499.03125 176.855469 499.46875 176.757813 L 499.472656 176.765625 C 503.203125 175.914063 507.242188 176.46875 510.746094 178.664063 C 514.238281 180.847656 516.523438 184.242188 517.378906 187.964844 L 517.375 187.972656 C 518.230469 191.695313 517.679688 195.753906 515.484375 199.246094 C 513.300781 202.742188 509.890625 205.015625 506.167969 205.878906 L 506.039063 205.914063 C 502.34375 206.714844 498.355469 206.148438 494.902344 203.984375 C 492.824219 202.6875 491.238281 200.9375 490.066406 198.972656 L 486.160156 200.773438 C 487.683594 203.46875 489.804688 205.871094 492.613281 207.636719 C 497.0625 210.414063 502.203125 211.148438 506.945313 210.097656 C 507.015625 210.097656 507.070313 210.085938 507.136719 210.074219 C 511.945313 208.976563 516.308594 206.03125 519.128906 201.527344 C 521.949219 197.023438 522.6875 191.808594 521.578125 187.003906 L 521.566406 187.003906 L 521.566406 186.996094 C 520.464844 182.199219 517.53125 177.816406 513.039063 175.007813 "/>
<path style=" stroke:none;fill-rule:nonzero;fill:rgb(5.499268%,63.09967%,78.399658%);fill-opacity:1;" d="M 587.46875 224.507813 L 589.753906 234.871094 C 589.949219 235.757813 590.824219 236.316406 591.710938 236.121094 C 592.597656 235.925781 593.15625 235.050781 592.960938 234.164063 L 590.675781 223.800781 C 590.480469 222.917969 589.605469 222.359375 588.714844 222.554688 C 587.832031 222.75 587.273438 223.625 587.46875 224.507813 "/>
<path style=" stroke:none;fill-rule:nonzero;fill:rgb(5.499268%,63.09967%,78.399658%);fill-opacity:1;" d="M 589.597656 276.714844 L 591.882813 287.078125 C 592.074219 287.960938 592.957031 288.519531 593.839844 288.324219 C 594.726563 288.128906 595.28125 287.253906 595.085938 286.367188 L 592.804688 276.007813 C 592.605469 275.121094 591.734375 274.5625 590.84375 274.757813 C 589.960938 274.953125 589.402344 275.828125 589.597656 276.714844 "/>
<path style=" stroke:none;fill-rule:nonzero;fill:rgb(5.499268%,63.09967%,78.399658%);fill-opacity:1;" d="M 565.730469 210.570313 L 587.792969 310.570313 C 587.988281 311.449219 588.863281 312.011719 589.75 311.816406 C 590.636719 311.621094 591.195313 310.746094 591.003906 309.863281 L 568.9375 209.863281 C 568.742188 208.980469 567.863281 208.421875 566.980469 208.613281 C 566.09375 208.8125 565.535156 209.6875 565.730469 210.570313 "/>
<path style=" stroke:none;fill-rule:nonzero;fill:rgb(5.499268%,63.09967%,78.399658%);fill-opacity:1;" d="M 586.710938 263.628906 C 586.90625 264.511719 587.78125 265.070313 588.664063 264.875 C 589.550781 264.679688 590.105469 263.804688 589.914063 262.921875 L 572.734375 185.066406 L 568.824219 182.574219 "/>
<path style=" stroke:none;fill-rule:nonzero;fill:rgb(5.499268%,63.09967%,78.399658%);fill-opacity:1;" d="M 562.84375 197.484375 C 563.039063 198.367188 563.914063 198.929688 564.800781 198.730469 C 565.6875 198.535156 566.242188 197.660156 566.050781 196.777344 L 561.945313 178.191406 L 558.035156 175.703125 "/>
<path style=" stroke:none;fill-rule:nonzero;fill:rgb(5.499268%,63.09967%,78.399658%);fill-opacity:1;" d="M 584.578125 211.421875 C 584.773438 212.308594 585.648438 212.867188 586.535156 212.671875 C 587.425781 212.476563 587.980469 211.601563 587.785156 210.714844 L 583.664063 192.027344 L 579.75 189.53125 "/>
<path style=" stroke:none;fill-rule:nonzero;fill:rgb(5.499268%,63.09967%,78.399658%);fill-opacity:1;" d="M 564.296875 285.945313 C 563.410156 286.140625 562.851563 287.015625 563.042969 287.898438 L 570.015625 319.492188 C 570.210938 320.378906 571.089844 320.933594 571.972656 320.738281 C 572.859375 320.542969 573.414063 319.667969 573.222656 318.785156 L 566.25 287.191406 C 566.054688 286.308594 565.179688 285.75 564.296875 285.945313 "/>
<path style=" stroke:none;fill-rule:nonzero;fill:rgb(5.499268%,63.09967%,78.399658%);fill-opacity:1;" d="M 580.175781 357.914063 C 581.058594 357.71875 581.617188 356.84375 581.421875 355.957031 L 576.105469 331.871094 C 575.910156 330.988281 575.035156 330.429688 574.152344 330.625 C 573.269531 330.820313 572.703125 331.695313 572.902344 332.578125 L 578.21875 356.664063 C 578.414063 357.550781 579.289063 358.109375 580.175781 357.914063 "/>
<path style=" stroke:none;fill-rule:nonzero;fill:rgb(5.499268%,63.09967%,78.399658%);fill-opacity:1;" d="M 608.070313 260.09375 L 605.78125 249.730469 C 605.585938 248.847656 604.710938 248.289063 603.828125 248.484375 C 602.941406 248.679688 602.382813 249.554688 602.578125 250.4375 L 604.863281 260.800781 C 605.058594 261.6875 605.941406 262.242188 606.820313 262.050781 C 607.710938 261.851563 608.265625 260.976563 608.070313 260.09375 "/>
<path style=" stroke:none;fill-rule:nonzero;fill:rgb(5.499268%,63.09967%,78.399658%);fill-opacity:1;" d="M 606.144531 293.921875 L 595.84375 247.25 C 595.648438 246.367188 594.773438 245.808594 593.890625 246.003906 C 593.007813 246.199219 592.445313 247.074219 592.640625 247.957031 L 602.9375 294.628906 C 603.132813 295.511719 604.007813 296.070313 604.894531 295.875 C 605.78125 295.679688 606.339844 294.804688 606.144531 293.921875 "/>
<path style=" stroke:none;fill-rule:nonzero;fill:rgb(5.499268%,63.09967%,78.399658%);fill-opacity:1;" d="M 595.609375 373.3125 L 590.316406 349.332031 C 590.121094 348.449219 589.246094 347.890625 588.363281 348.085938 C 587.476563 348.28125 586.917969 349.15625 587.113281 350.039063 L 592.402344 374.019531 C 592.597656 374.902344 593.480469 375.460938 594.359375 375.265625 L 594.363281 375.265625 C 595.246094 375.070313 595.804688 374.195313 595.609375 373.3125 "/>
<path style=" stroke:none;fill-rule:nonzero;fill:rgb(5.499268%,63.09967%,78.399658%);fill-opacity:1;" d="M 596.019531 298.207031 C 595.136719 298.402344 594.578125 299.277344 594.769531 300.160156 L 605.070313 346.832031 C 605.261719 347.722656 606.140625 348.28125 607.023438 348.082031 C 607.910156 347.886719 608.46875 347.011719 608.269531 346.125 L 597.972656 299.453125 C 597.777344 298.570313 596.902344 298.011719 596.019531 298.207031 "/>
<path style=" stroke:none;fill-rule:nonzero;fill:rgb(5.499268%,63.09967%,78.399658%);fill-opacity:1;" d="M 577.5 382.988281 L 569.746094 347.839844 C 569.550781 346.953125 568.675781 346.394531 567.785156 346.589844 C 566.902344 346.785156 566.34375 347.660156 566.539063 348.546875 L 574.292969 383.695313 C 574.488281 384.578125 575.367188 385.136719 576.253906 384.941406 C 577.136719 384.746094 577.695313 383.871094 577.5 382.988281 "/>
<path style=" stroke:none;fill-rule:nonzero;fill:rgb(5.499268%,63.09967%,78.399658%);fill-opacity:1;" d="M 594.589844 198.988281 L 590.679688 196.5 L 599.691406 237.351563 C 599.890625 238.234375 600.765625 238.796875 601.648438 238.597656 C 602.53125 238.40625 603.09375 237.527344 602.898438 236.644531 "/>
<path style=" stroke:none;fill-rule:nonzero;fill:rgb(5.499268%,63.09967%,78.399658%);fill-opacity:1;" d="M 560.691406 261.996094 C 560.496094 261.109375 559.621094 260.550781 558.738281 260.746094 C 557.847656 260.941406 557.289063 261.816406 557.484375 262.703125 L 560.160156 274.816406 C 560.351563 275.699219 561.230469 276.257813 562.113281 276.0625 C 563 275.867188 563.558594 274.992188 563.363281 274.109375 "/>
<path style=" stroke:none;fill-rule:nonzero;fill:rgb(5.499268%,63.09967%,78.399658%);fill-opacity:1;" d="M 575.539063 289.96875 C 576.425781 289.773438 576.984375 288.898438 576.789063 288.015625 L 571.964844 266.128906 C 571.765625 265.242188 570.890625 264.683594 570.003906 264.882813 C 569.117188 265.074219 568.5625 265.949219 568.757813 266.835938 L 573.585938 288.722656 C 573.78125 289.605469 574.65625 290.164063 575.539063 289.96875 "/>
<path style=" stroke:none;fill-rule:nonzero;fill:rgb(5.499268%,63.09967%,78.399658%);fill-opacity:1;" d="M 557.179688 306.128906 L 563.652344 335.460938 C 563.847656 336.34375 564.722656 336.90625 565.605469 336.710938 C 566.492188 336.515625 567.054688 335.640625 566.859375 334.753906 L 560.386719 305.421875 C 560.191406 304.535156 559.308594 303.980469 558.429688 304.175781 L 558.425781 304.175781 C 557.542969 304.367188 556.984375 305.242188 557.179688 306.128906 "/>
<path style=" stroke:none;fill-rule:nonzero;fill:rgb(5.499268%,63.09967%,78.399658%);fill-opacity:1;" d="M 586.183594 338.203125 C 587.066406 338.007813 587.625 337.132813 587.429688 336.25 L 579.679688 301.101563 C 579.480469 300.214844 578.605469 299.652344 577.722656 299.851563 C 576.835938 300.046875 576.277344 300.921875 576.472656 301.808594 L 584.230469 336.957031 C 584.421875 337.839844 585.296875 338.398438 586.183594 338.203125 "/>
<path style=" stroke:none;fill-rule:nonzero;fill:rgb(5.499268%,63.09967%,78.399658%);fill-opacity:1;" d="M 580.386719 396.074219 C 580.1875 395.191406 579.316406 394.632813 578.429688 394.828125 C 577.539063 395.023438 576.988281 395.898438 577.179688 396.78125 L 579.996094 409.539063 L 582.679688 406.472656 "/>
<path style=" stroke:none;fill-rule:nonzero;fill:rgb(5.499268%,63.09967%,78.399658%);fill-opacity:1;" d="M 605.515625 205.949219 L 601.605469 203.460938 L 614.449219 261.675781 L 614.449219 246.445313 Z M 605.515625 205.949219 "/>
<path style=" stroke:none;fill-rule:nonzero;fill:rgb(5.499268%,63.09967%,78.399658%);fill-opacity:1;" d="M 609.03125 307.007813 C 608.835938 306.125 607.960938 305.566406 607.078125 305.761719 C 606.1875 305.957031 605.628906 306.832031 605.824219 307.714844 L 611.09375 331.585938 C 611.289063 332.472656 612.164063 333.03125 613.046875 332.835938 C 613.933594 332.640625 614.496094 331.765625 614.300781 330.882813 "/>
<path style=" stroke:none;fill-rule:nonzero;fill:rgb(5.499268%,63.09967%,78.399658%);fill-opacity:1;" d="M 610.957031 273.179688 C 610.761719 272.296875 609.886719 271.738281 609.003906 271.933594 C 608.117188 272.128906 607.5625 273.003906 607.75 273.886719 L 614.445313 304.238281 L 614.445313 289.007813 "/>
<path style=" stroke:none;fill-rule:nonzero;fill:rgb(5.499268%,63.09967%,78.399658%);fill-opacity:1;" d="M 611.304688 401.886719 L 593.886719 322.945313 C 593.691406 322.058594 592.820313 321.5 591.929688 321.695313 C 591.046875 321.890625 590.488281 322.765625 590.683594 323.652344 L 608.097656 402.59375 C 608.109375 402.648438 608.152344 402.695313 608.164063 402.75 L 611.089844 403.109375 C 611.308594 402.757813 611.402344 402.324219 611.304688 401.886719 "/>
<path style=" stroke:none;fill-rule:nonzero;fill:rgb(5.499268%,63.09967%,78.399658%);fill-opacity:1;" d="M 609.203125 357.964844 C 608.320313 358.160156 607.761719 359.035156 607.957031 359.917969 L 613.21875 383.789063 C 613.359375 384.425781 613.855469 384.878906 614.449219 385.019531 L 614.449219 374.125 L 611.15625 359.210938 C 610.964844 358.328125 610.089844 357.769531 609.203125 357.964844 "/>
<path style=" stroke:none;fill-rule:nonzero;fill:rgb(5.499268%,63.09967%,78.399658%);fill-opacity:1;" d="M 614.445313 219.117188 L 614.445313 209.429688 L 612.25 209.167969 "/>
<path style=" stroke:none;fill-rule:nonzero;fill:rgb(5.499268%,63.09967%,78.399658%);fill-opacity:1;" d="M 554.597656 249.617188 C 554.792969 250.5 555.667969 251.058594 556.554688 250.863281 C 557.441406 250.667969 558 249.792969 557.804688 248.910156 L 553.8125 230.816406 L 553.8125 246.046875 "/>
<path style=" stroke:none;fill-rule:nonzero;fill:rgb(5.499268%,63.09967%,78.399658%);fill-opacity:1;" d="M 554.292969 293.042969 C 554.488281 293.925781 555.363281 294.484375 556.246094 294.289063 C 557.132813 294.09375 557.691406 293.21875 557.5 292.335938 L 553.808594 275.628906 L 553.808594 290.859375 "/>
<path style=" stroke:none;fill-rule:nonzero;fill:rgb(5.499268%,63.09967%,78.399658%);fill-opacity:1;" d="M 598.496094 386.398438 C 598.300781 385.511719 597.425781 384.957031 596.539063 385.152344 C 595.65625 385.347656 595.097656 386.222656 595.289063 387.105469 L 598.480469 401.554688 L 601.933594 401.976563 "/>
<path style=" stroke:none;fill-rule:nonzero;fill:rgb(5.499268%,63.09967%,78.399658%);fill-opacity:1;" d="M 559.972656 359.824219 C 560.859375 359.632813 561.421875 358.757813 561.226563 357.871094 L 555.933594 333.90625 C 555.714844 332.910156 554.796875 332.285156 553.8125 332.355469 L 553.8125 339.507813 L 558.019531 358.578125 C 558.214844 359.464844 559.089844 360.023438 559.972656 359.824219 "/>
<path style=" stroke:none;fill-rule:nonzero;fill:rgb(5.499268%,63.09967%,78.399658%);fill-opacity:1;" d="M 565.867188 253.75 C 566.0625 254.632813 566.9375 255.191406 567.824219 254.996094 C 568.714844 254.800781 569.265625 253.925781 569.074219 253.042969 L 553.8125 183.867188 L 553.8125 199.097656 "/>
<path style=" stroke:none;fill-rule:nonzero;fill:rgb(5.499268%,63.09967%,78.399658%);fill-opacity:1;" d="M 584.3125 369.042969 C 584.113281 368.160156 583.242188 367.601563 582.355469 367.796875 C 581.464844 367.992188 580.910156 368.867188 581.105469 369.753906 L 587.894531 400.515625 L 588.105469 400.269531 L 591.285156 400.664063 "/>
<path style=" stroke:none;fill-rule:nonzero;fill:rgb(5.499268%,63.09967%,78.399658%);fill-opacity:1;" d="M 564.109375 370.957031 C 563.914063 370.074219 563.039063 369.515625 562.15625 369.710938 C 561.265625 369.90625 560.714844 370.78125 560.902344 371.664063 L 568.734375 407.144531 L 573.835938 415.027344 "/>
<path style=" stroke:none;fill-rule:nonzero;fill:rgb(5.499268%,63.09967%,78.399658%);fill-opacity:1;" d="M 553.8125 369.550781 L 553.8125 384.074219 L 558.671875 391.59375 "/>
<path style=" stroke:none;fill-rule:nonzero;fill:rgb(8.198547%,65.899658%,28.999329%);fill-opacity:1;" d="M 684.789063 259.714844 L 682.78125 257.007813 C 682.375 257.355469 681.972656 257.699219 681.574219 258.058594 L 681.574219 262.65625 C 682.609375 261.621094 683.695313 260.664063 684.789063 259.714844 "/>
<path style=" stroke:none;fill-rule:nonzero;fill:rgb(8.198547%,65.899658%,28.999329%);fill-opacity:1;" d="M 681.574219 274.726563 C 682.320313 273.785156 683.023438 272.835938 683.796875 271.894531 C 685.550781 269.769531 687.488281 267.863281 689.511719 266.066406 L 687.503906 263.363281 C 685.40625 265.207031 683.402344 267.171875 681.574219 269.34375 "/>
<path style=" stroke:none;fill-rule:nonzero;fill:rgb(8.198547%,65.899658%,28.999329%);fill-opacity:1;" d="M 681.574219 282.1875 L 681.574219 287.988281 C 684.128906 284.296875 686.875 280.585938 689.894531 276.914063 C 691.234375 275.289063 692.703125 273.820313 694.234375 272.425781 L 692.21875 269.714844 C 690.480469 271.285156 688.8125 272.941406 687.296875 274.777344 C 685.273438 277.234375 683.390625 279.707031 681.574219 282.1875 "/>
<path style=" stroke:none;fill-rule:nonzero;fill:rgb(8.198547%,65.899658%,28.999329%);fill-opacity:1;" d="M 681.574219 296.207031 L 681.574219 302.65625 C 685.582031 295.863281 690.320313 288.835938 695.996094 281.9375 C 696.921875 280.816406 697.914063 279.769531 698.953125 278.777344 L 696.941406 276.070313 C 695.695313 277.234375 694.496094 278.464844 693.398438 279.800781 C 688.917969 285.242188 685.019531 290.765625 681.574219 296.207031 "/>
<path style=" stroke:none;fill-rule:nonzero;fill:rgb(8.198547%,65.899658%,28.999329%);fill-opacity:1;" d="M 768.050781 325.898438 L 769 319.730469 C 768.148438 317.878906 767.269531 316.058594 766.371094 314.269531 L 762.433594 313.925781 C 764.410156 317.765625 766.339844 321.808594 768.050781 325.898438 "/>
<path style=" stroke:none;fill-rule:nonzero;fill:rgb(8.198547%,65.899658%,28.999329%);fill-opacity:1;" d="M 681.574219 319.347656 C 686.382813 309.335938 693.042969 297.96875 702.097656 286.960938 C 702.609375 286.34375 703.167969 285.769531 703.722656 285.199219 L 701.6875 282.460938 C 700.929688 283.214844 700.1875 283.988281 699.5 284.824219 C 692.011719 293.917969 686.152344 303.253906 681.574219 311.914063 "/>
<path style=" stroke:none;fill-rule:nonzero;fill:rgb(8.198547%,65.899658%,28.999329%);fill-opacity:1;" d="M 753.0625 313.113281 C 757.765625 321.691406 762.566406 331.816406 764.980469 341.09375 C 765.136719 341.6875 765.285156 342.292969 765.433594 342.890625 L 766.648438 335.003906 C 764.195313 327.699219 760.664063 320.1875 757.066406 313.464844 "/>
<path style=" stroke:none;fill-rule:nonzero;fill:rgb(8.198547%,65.899658%,28.999329%);fill-opacity:1;" d="M 681.574219 340.050781 C 685.578125 328.378906 693.597656 309.722656 708.199219 291.988281 C 708.296875 291.867188 708.414063 291.765625 708.511719 291.648438 L 706.472656 288.902344 C 706.183594 289.21875 705.875 289.511719 705.601563 289.847656 C 693.859375 304.105469 686.273438 318.980469 681.574219 330.5 "/>
<path style=" stroke:none;fill-rule:nonzero;fill:rgb(8.198547%,65.899658%,28.999329%);fill-opacity:1;" d="M 685.785156 354.03125 C 685.800781 353.9375 685.871094 353.523438 685.886719 353.453125 C 686.140625 352.265625 692.261719 324.433594 713.371094 298.195313 L 711.296875 295.390625 C 689.234375 322.457031 682.855469 351.523438 682.59375 352.753906 C 682.582031 352.8125 682.46875 353.460938 682.46875 353.460938 C 682.460938 353.472656 682.460938 353.480469 682.457031 353.496094 C 681.03125 362.6875 681.769531 370.644531 683.605469 377.40625 L 686.894531 376.648438 C 685.140625 370.265625 684.429688 362.742188 685.785156 354.03125 "/>
<path style=" stroke:none;fill-rule:nonzero;fill:rgb(8.198547%,65.899658%,28.999329%);fill-opacity:1;" d="M 747.617188 312.640625 L 743.527344 312.289063 C 748.722656 321.207031 754.648438 332.78125 757.335938 343.085938 C 758.78125 348.648438 760.042969 354.15625 760.4375 359.707031 L 762.933594 359.132813 L 763.109375 358 L 762.867188 357.941406 L 763.109375 357.996094 L 763.433594 355.878906 C 762.828125 351.3125 761.777344 346.789063 760.59375 342.234375 C 758.027344 332.390625 752.617188 321.453125 747.617188 312.640625 "/>
<path style=" stroke:none;fill-rule:nonzero;fill:rgb(8.198547%,65.899658%,28.999329%);fill-opacity:1;" d="M 693.578125 355.339844 L 693.636719 354.996094 C 694.28125 352.097656 700.015625 328.183594 718.253906 304.761719 L 716.175781 301.964844 C 696.960938 326.289063 690.972656 351.445313 690.34375 354.304688 C 690.339844 354.328125 690.335938 354.347656 690.328125 354.371094 L 690.261719 354.761719 C 690.261719 354.773438 690.253906 354.789063 690.253906 354.804688 C 689.015625 362.859375 689.730469 369.765625 691.363281 375.617188 L 694.644531 374.863281 C 693.09375 369.390625 692.414063 362.914063 693.578125 355.339844 "/>
<path style=" stroke:none;fill-rule:nonzero;fill:rgb(8.198547%,65.899658%,28.999329%);fill-opacity:1;" d="M 737.988281 311.804688 L 733.839844 311.441406 C 739.878906 321.289063 746.925781 334.464844 749.6875 345.078125 C 751.179688 350.824219 752.429688 356.226563 752.636719 361.503906 L 755.96875 360.738281 C 755.671875 355.382813 754.4375 349.960938 752.945313 344.230469 C 750.289063 334.019531 743.847656 321.597656 737.988281 311.804688 "/>
<path style=" stroke:none;fill-rule:nonzero;fill:rgb(8.198547%,65.899658%,28.999329%);fill-opacity:1;" d="M 744.761719 363.320313 L 748.148438 362.539063 C 748.074219 357.492188 746.851563 352.1875 745.300781 346.222656 C 743.785156 340.414063 740.75 333.214844 736.273438 324.824219 C 733.3125 319.277344 730.367188 314.417969 728.171875 310.953125 L 723.933594 310.585938 C 730.816406 321.105469 739.203125 336.1875 742.039063 347.070313 C 743.613281 353.097656 744.816406 358.394531 744.761719 363.320313 "/>
<path style=" stroke:none;fill-rule:nonzero;fill:rgb(8.198547%,65.899658%,28.999329%);fill-opacity:1;" d="M 701.375 356.636719 L 701.382813 356.574219 C 701.988281 353.921875 707.359375 332.039063 723.730469 310.566406 L 722.484375 310.457031 L 721.0625 308.550781 C 704.210938 330.671875 698.679688 353.285156 698.09375 355.855469 C 698.089844 355.878906 698.085938 355.902344 698.078125 355.921875 L 698.058594 356.046875 C 698.058594 356.066406 698.050781 356.085938 698.046875 356.105469 C 697 363.007813 697.636719 368.902344 699.066406 373.84375 L 702.347656 373.089844 C 701.007813 368.527344 700.402344 363.066406 701.375 356.636719 "/>
<path style=" stroke:none;fill-rule:nonzero;fill:rgb(8.198547%,65.899658%,28.999329%);fill-opacity:1;" d="M 709.148438 358.085938 C 709.640625 356.042969 713.445313 341.214844 723.449219 324.941406 C 727.144531 331.382813 732.375 341.316406 734.394531 349.0625 C 736.050781 355.429688 737.273438 360.785156 736.738281 365.167969 L 740.195313 364.371094 C 740.480469 359.699219 739.257813 354.386719 737.652344 348.214844 C 735.257813 339.03125 728.671875 327.125 724.957031 320.84375 C 724.660156 320.335938 724.121094 320.015625 723.539063 320.011719 L 723.503906 320.011719 C 722.9375 320.011719 722.402344 320.296875 722.089844 320.78125 C 711.074219 337.808594 706.710938 353.953125 705.941406 357.023438 C 705.886719 357.300781 705.835938 357.566406 705.785156 357.839844 C 705.015625 363.417969 705.585938 368.140625 706.769531 372.066406 L 710.0625 371.3125 C 708.933594 367.703125 708.398438 363.3125 709.148438 358.085938 "/>
<path style=" stroke:none;fill-rule:nonzero;fill:rgb(8.198547%,65.899658%,28.999329%);fill-opacity:1;" d="M 716.921875 359.570313 C 717.46875 357.417969 719.335938 350.644531 723.34375 341.902344 C 724.9375 345.4375 726.09375 348.5625 726.746094 351.054688 C 728.269531 356.90625 729.566406 362.382813 728.722656 365.160156 C 728.578125 365.640625 728.269531 366.339844 727.617188 367.269531 L 731.878906 366.285156 C 731.894531 366.234375 731.933594 366.179688 731.949219 366.132813 C 733.046875 362.511719 731.777344 357.015625 730.003906 350.210938 C 729.097656 346.71875 727.367188 342.347656 724.863281 337.226563 C 724.585938 336.652344 724 336.285156 723.359375 336.28125 L 723.355469 336.28125 C 722.714844 336.28125 722.128906 336.644531 721.839844 337.21875 C 716.5625 347.921875 714.222656 356.476563 713.632813 358.84375 C 713.617188 358.910156 713.605469 358.972656 713.59375 359.03125 C 713 363.539063 713.527344 367.257813 714.519531 370.285156 L 717.816406 369.527344 C 716.902344 366.894531 716.402344 363.605469 716.921875 359.570313 "/>
<path style=" stroke:none;fill-rule:nonzero;fill:rgb(8.198547%,65.899658%,28.999329%);fill-opacity:1;" d="M 723.019531 355.5625 C 722.09375 355.519531 721.300781 356.238281 721.253906 357.164063 L 720.6875 368.863281 L 724.101563 368.074219 L 724.621094 357.324219 C 724.664063 356.394531 723.945313 355.609375 723.019531 355.5625 "/>
<path style=" stroke:none;fill-rule:nonzero;fill:rgb(93.699646%,71.798706%,10.598755%);fill-opacity:1;" d="M 654.503906 360.335938 C 654.320313 360.167969 654.140625 360.011719 653.972656 359.828125 L 646.449219 351.390625 C 646.160156 351.089844 645.757813 350.921875 645.34375 350.941406 C 644.921875 350.953125 644.53125 351.144531 644.265625 351.46875 C 641.964844 354.25 639.8125 357.933594 636.882813 360.261719 C 636.359375 360.671875 636.160156 361.359375 636.402344 361.96875 C 636.648438 362.585938 637.277344 362.949219 637.929688 362.878906 L 653.46875 362.867188 C 654.136719 362.890625 654.726563 362.46875 654.914063 361.835938 C 655.082031 361.289063 654.910156 360.707031 654.503906 360.335938 M 640.515625 360.433594 C 645.410156 354.1875 644.085938 355.660156 645.425781 354.148438 C 647.160156 355.859375 645.597656 354.300781 650.902344 360.464844 "/>
<path style=" stroke:none;fill-rule:nonzero;fill:rgb(93.699646%,71.798706%,10.598755%);fill-opacity:1;" d="M 628.175781 211.058594 L 623.109375 210.460938 C 621.371094 211.480469 619.695313 212.597656 618.128906 213.859375 L 618.128906 217.761719 C 621.117188 215.019531 624.484375 212.730469 628.175781 211.058594 "/>
<path style=" stroke:none;fill-rule:nonzero;fill:rgb(93.699646%,71.798706%,10.598755%);fill-opacity:1;" d="M 618.128906 225.019531 L 618.128906 230.070313 C 623.386719 221.449219 632.628906 215.933594 642.808594 215.585938 C 643.046875 215.578125 643.414063 215.574219 643.820313 215.574219 C 647.035156 215.574219 650.175781 216.15625 653.171875 217.140625 L 650.636719 213.726563 L 650.636719 213.722656 L 650.449219 213.703125 L 642.203125 212.726563 C 632.707031 213.191406 623.992188 217.757813 618.128906 225.019531 "/>
<path style=" stroke:none;fill-rule:nonzero;fill:rgb(93.699646%,71.798706%,10.598755%);fill-opacity:1;" d="M 642.96875 220.570313 C 633.910156 220.878906 625.683594 226.058594 621.5 234.09375 L 618.125 240.5625 L 618.125 246.871094 L 624.082031 235.445313 C 627.785156 228.339844 635.0625 223.753906 643.074219 223.484375 C 643.265625 223.480469 643.515625 223.476563 643.820313 223.476563 C 651.519531 223.476563 658.792969 227.554688 662.808594 234.132813 L 674.261719 252.894531 C 674.613281 253.472656 675.320313 253.730469 675.960938 253.523438 L 677.898438 252.890625 L 677.898438 250.433594 L 677.53125 249.945313 L 676.152344 250.394531 L 668.230469 237.417969 L 660.398438 226.878906 C 655.855469 222.898438 649.96875 220.558594 643.820313 220.558594 C 643.46875 220.558594 643.191406 220.5625 642.96875 220.570313 "/>
<path style=" stroke:none;fill-rule:nonzero;fill:rgb(93.699646%,71.798706%,10.598755%);fill-opacity:1;" d="M 658.550781 236.726563 C 655.4375 231.628906 649.792969 228.457031 643.820313 228.457031 C 643.617188 228.457031 643.414063 228.464844 643.230469 228.46875 C 637.023438 228.679688 631.378906 232.234375 628.507813 237.746094 L 618.125 257.667969 L 618.125 263.765625 C 618.191406 263.683594 618.292969 263.652344 618.34375 263.558594 L 631.089844 239.09375 C 633.480469 234.511719 638.167969 231.558594 643.339844 231.382813 C 643.488281 231.375 643.65625 231.375 643.820313 231.375 C 648.78125 231.375 653.476563 234.011719 656.0625 238.25 L 670.777344 262.347656 C 671.125 262.921875 671.828125 263.183594 672.46875 262.972656 L 677.898438 261.207031 L 677.898438 258.136719 L 672.660156 259.84375 "/>
<path style=" stroke:none;fill-rule:nonzero;fill:rgb(93.699646%,71.798706%,10.598755%);fill-opacity:1;" d="M 651.804688 240.84375 C 650.117188 238.082031 647.054688 236.363281 643.816406 236.363281 C 643.707031 236.363281 643.601563 236.363281 643.5 236.367188 C 640.128906 236.480469 637.074219 238.40625 635.515625 241.398438 L 620.414063 270.382813 L 618.128906 269.808594 L 618.128906 272.816406 L 620.816406 273.488281 C 621.472656 273.65625 622.152344 273.351563 622.464844 272.75 L 638.101563 242.742188 C 639.171875 240.6875 641.28125 239.359375 643.601563 239.28125 C 645.90625 239.199219 648.117188 240.398438 649.316406 242.367188 L 667.285156 271.796875 C 667.636719 272.371094 668.335938 272.632813 668.976563 272.425781 L 677.898438 269.515625 L 677.898438 266.449219 L 669.171875 269.296875 "/>
<path style=" stroke:none;fill-rule:nonzero;fill:rgb(93.699646%,71.798706%,10.598755%);fill-opacity:1;" d="M 645.058594 244.964844 C 644.785156 244.515625 644.289063 244.253906 643.765625 244.265625 C 643.242188 244.285156 642.765625 244.582031 642.523438 245.046875 L 624.539063 279.570313 L 618.125 277.957031 L 618.125 280.964844 L 624.941406 282.679688 C 625.59375 282.847656 626.277344 282.539063 626.589844 281.941406 L 643.914063 248.6875 L 663.796875 281.246094 C 664.144531 281.824219 664.847656 282.085938 665.492188 281.875 L 677.894531 277.828125 L 677.894531 274.761719 L 665.679688 278.742188 "/>
<path style=" stroke:none;fill-rule:nonzero;fill:rgb(93.699646%,71.798706%,10.598755%);fill-opacity:1;" d="M 665.152344 286.773438 C 662.910156 286.773438 660.789063 285.585938 659.621094 283.667969 L 645.609375 260.710938 C 645.328125 260.257813 644.832031 259.992188 644.304688 260.011719 C 643.773438 260.027344 643.300781 260.324219 643.054688 260.796875 L 630.929688 284.066406 C 629.808594 286.21875 627.605469 287.554688 625.183594 287.554688 C 624.648438 287.554688 624.113281 287.488281 623.597656 287.359375 L 618.125 285.980469 L 618.125 289 L 622.882813 290.203125 C 623.632813 290.394531 624.40625 290.488281 625.183594 290.488281 C 628.703125 290.488281 631.898438 288.550781 633.527344 285.421875 L 644.453125 264.453125 L 657.117188 285.195313 C 658.816406 287.976563 661.894531 289.703125 665.152344 289.703125 C 666.144531 289.703125 667.128906 289.550781 668.074219 289.238281 L 677.894531 286.035156 L 677.894531 282.953125 L 667.164063 286.449219 C 666.511719 286.664063 665.839844 286.773438 665.152344 286.773438 "/>
<path style=" stroke:none;fill-rule:nonzero;fill:rgb(93.699646%,71.798706%,10.598755%);fill-opacity:1;" d="M 642.875 399.28125 C 641.582031 399.28125 640.320313 399.542969 639.128906 400.058594 L 627.449219 405.132813 L 633.183594 405.839844 L 640.292969 402.75 C 641.117188 402.394531 641.980469 402.214844 642.875 402.214844 C 644.042969 402.214844 645.171875 402.539063 646.160156 403.121094 L 647.714844 400.648438 C 646.261719 399.773438 644.601563 399.28125 642.875 399.28125 "/>
<path style=" stroke:none;fill-rule:nonzero;fill:rgb(93.699646%,71.798706%,10.598755%);fill-opacity:1;" d="M 674.210938 328.277344 C 675.320313 329.109375 676.570313 329.652344 677.898438 329.9375 L 677.898438 326.917969 C 677.214844 326.699219 676.5625 326.378906 675.976563 325.9375 C 673.8125 324.304688 672.886719 321.46875 673.671875 318.878906 L 677.898438 304.945313 L 677.898438 294.832031 L 670.867188 318.023438 C 669.726563 321.789063 671.070313 325.910156 674.210938 328.277344 "/>
<path style=" stroke:none;fill-rule:nonzero;fill:rgb(93.699646%,71.798706%,10.598755%);fill-opacity:1;" d="M 635.941406 393.023438 L 625.207031 397.679688 C 623.777344 394.296875 621.296875 391.492188 618.128906 389.585938 L 618.128906 393.144531 C 620.382813 394.925781 622.085938 397.3125 622.964844 400.097656 C 623.089844 400.488281 623.378906 400.8125 623.753906 400.984375 C 623.949219 401.078125 624.152344 401.121094 624.363281 401.121094 C 624.5625 401.121094 624.761719 401.078125 624.949219 401 L 637.109375 395.722656 C 638.941406 394.925781 640.878906 394.523438 642.871094 394.523438 L 651.390625 394.804688 L 653.203125 391.925781 L 642.871094 391.585938 C 640.472656 391.585938 638.144531 392.070313 635.941406 393.023438 "/>
<path style=" stroke:none;fill-rule:nonzero;fill:rgb(93.699646%,71.798706%,10.598755%);fill-opacity:1;" d="M 670.652344 293.710938 L 669.683594 294.027344 C 668.234375 294.496094 666.722656 294.738281 665.203125 294.738281 C 660.195313 294.738281 655.464844 292.082031 652.851563 287.808594 L 646.15625 276.835938 C 645.878906 276.386719 645.378906 276.113281 644.847656 276.132813 C 644.320313 276.152344 643.84375 276.453125 643.59375 276.917969 L 637.960938 287.738281 C 635.460938 292.542969 630.542969 295.523438 625.128906 295.523438 C 623.9375 295.523438 622.753906 295.375 621.597656 295.082031 L 618.128906 294.207031 L 618.128906 303.011719 L 622.414063 319.738281 C 623.757813 324.980469 622.0625 330.40625 618.128906 333.988281 L 618.128906 337.714844 C 618.316406 337.582031 618.527344 337.484375 618.71875 337.347656 C 624.464844 333.113281 627.035156 325.917969 625.261719 319.007813 L 619.789063 297.660156 L 620.878906 297.933594 C 622.261719 298.285156 623.695313 298.460938 625.128906 298.460938 C 631.644531 298.460938 637.554688 294.871094 640.566406 289.097656 L 645.003906 280.585938 L 650.34375 289.339844 C 653.484375 294.480469 659.175781 297.679688 665.203125 297.679688 C 666.453125 297.679688 667.695313 297.542969 668.914063 297.273438 L 663.304688 315.792969 C 661.191406 322.75 663.675781 330.363281 669.484375 334.738281 C 671.929688 336.582031 674.863281 337.703125 677.894531 338.070313 L 677.894531 335.132813 C 675.5 334.78125 673.191406 333.851563 671.253906 332.390625 C 666.425781 328.753906 664.359375 322.425781 666.113281 316.640625 L 672.511719 295.53125 C 672.671875 295.007813 672.527344 294.441406 672.136719 294.058594 C 671.746094 293.671875 671.171875 293.542969 670.652344 293.710938 "/>
<path style=" stroke:none;fill-rule:nonzero;fill:rgb(93.699646%,71.798706%,10.598755%);fill-opacity:1;" d="M 621.65625 340.628906 C 620.539063 341.449219 619.351563 342.125 618.128906 342.722656 L 618.128906 345.90625 C 619.96875 345.132813 621.757813 344.210938 623.398438 343 C 631.789063 336.820313 635.539063 326.308594 632.953125 316.21875 L 630.105469 305.113281 C 636.277344 303.882813 641.726563 300.425781 645.472656 295.382813 C 648.765625 299.425781 653.128906 302.507813 658.167969 303.941406 L 655.691406 312.664063 C 652.609375 322.824219 656.234375 333.945313 664.714844 340.335938 C 668.53125 343.207031 673.144531 344.871094 677.898438 345.277344 L 677.898438 342.332031 C 673.785156 341.9375 669.796875 340.46875 666.488281 337.980469 C 658.988281 332.332031 655.785156 322.503906 658.507813 313.515625 L 661.429688 303.320313 C 661.550781 302.929688 661.5 302.5 661.292969 302.148438 C 661.085938 301.792969 660.734375 301.542969 660.335938 301.453125 C 654.71875 300.234375 649.847656 296.746094 646.636719 292.023438 C 646.359375 291.617188 645.90625 291.375 645.414063 291.375 C 645.40625 291.375 645.398438 291.378906 645.386719 291.378906 C 644.886719 291.390625 644.429688 291.648438 644.164063 292.074219 C 640.613281 297.792969 634.753906 301.578125 628.089844 302.464844 C 627.671875 302.519531 627.300781 302.746094 627.0625 303.097656 C 626.828125 303.445313 626.75 303.878906 626.859375 304.289063 L 630.105469 316.945313 C 632.390625 325.871094 629.074219 335.164063 621.65625 340.628906 "/>
<path style=" stroke:none;fill-rule:nonzero;fill:rgb(93.699646%,71.798706%,10.598755%);fill-opacity:1;" d="M 620.0625 384.175781 C 622.605469 385.597656 624.8125 387.453125 626.621094 389.703125 C 627.039063 390.21875 627.746094 390.394531 628.351563 390.128906 L 633.917969 387.71875 C 636.761719 386.484375 639.765625 385.863281 642.859375 385.863281 L 653.269531 386.199219 C 654.398438 386.199219 655.507813 386.332031 656.613281 386.492188 L 658.308594 383.804688 C 656.648438 383.46875 654.976563 383.253906 653.269531 383.253906 L 642.859375 382.914063 C 639.363281 382.914063 635.960938 383.617188 632.746094 385.015625 L 628.1875 386.992188 C 626.285156 384.832031 624.039063 383.023438 621.503906 381.609375 L 618.128906 379.71875 L 618.128906 383.09375 "/>
<path style=" stroke:none;fill-rule:nonzero;fill:rgb(93.699646%,71.798706%,10.598755%);fill-opacity:1;" d="M 628.808594 380.519531 C 629.230469 380.875 629.8125 380.957031 630.320313 380.738281 L 630.886719 380.492188 C 634.699219 378.839844 638.738281 378.003906 642.886719 378.003906 L 653.199219 378.335938 C 656.765625 378.335938 660.269531 378.964844 663.621094 380.195313 L 665.730469 380.972656 C 665.894531 381.03125 666.066406 381.058594 666.234375 381.058594 C 666.601563 381.058594 666.964844 380.925781 667.242188 380.660156 C 668.367188 379.59375 669.585938 378.601563 670.871094 377.707031 L 677.894531 372.847656 L 677.894531 369.300781 L 669.214844 375.3125 C 668.054688 376.113281 666.945313 376.992188 665.90625 377.929688 L 664.628906 377.457031 C 660.953125 376.109375 657.105469 375.425781 653.199219 375.425781 L 642.886719 375.085938 C 638.421875 375.085938 634.078125 375.96875 629.96875 377.714844 C 628.597656 376.636719 627.125 375.652344 625.589844 374.792969 L 618.125 370.621094 L 618.125 373.957031 L 624.164063 377.335938 C 625.8125 378.257813 627.371094 379.328125 628.808594 380.519531 "/>
<path style=" stroke:none;fill-rule:nonzero;fill:rgb(93.699646%,71.798706%,10.598755%);fill-opacity:1;" d="M 626.574219 347.476563 C 623.972656 349.394531 621.128906 350.855469 618.125 351.84375 L 618.125 354.839844 C 621.746094 353.761719 625.1875 352.117188 628.304688 349.828125 C 639.21875 341.789063 644.097656 328.113281 640.738281 314.980469 L 639.527344 310.433594 L 644.347656 306.84375 L 648.621094 309.5 L 648.175781 311.238281 C 644.167969 324.460938 648.742188 338.816406 659.773438 347.132813 C 664.996094 351.066406 671.375 353.285156 677.894531 353.644531 L 677.894531 350.730469 C 672.007813 350.371094 666.246094 348.359375 661.527344 344.804688 C 651.46875 337.226563 647.3125 324.140625 650.964844 312.085938 L 651.589844 309.652344 C 651.792969 308.972656 651.480469 308.265625 650.878906 307.945313 C 650.859375 307.929688 650.839844 307.914063 650.816406 307.902344 L 645.542969 304.464844 C 645.507813 304.4375 645.488281 304.410156 645.441406 304.386719 C 645.421875 304.375 645.398438 304.363281 645.378906 304.351563 L 645.335938 304.324219 C 645.304688 304.304688 645.261719 304.292969 645.222656 304.273438 C 644.574219 303.957031 643.921875 303.738281 643.351563 304.191406 L 637.285156 308.851563 C 636.832031 309.210938 636.632813 309.804688 636.777344 310.363281 L 637.910156 315.703125 C 640.980469 327.675781 636.53125 340.148438 626.574219 347.476563 "/>
<path style=" stroke:none;fill-rule:nonzero;fill:rgb(93.699646%,71.798706%,10.598755%);fill-opacity:1;" d="M 646.136719 337.417969 C 645.875 336.933594 645.363281 336.640625 644.8125 336.65625 C 644.265625 336.675781 643.773438 337.003906 643.550781 337.507813 C 640.914063 343.410156 636.738281 350.207031 631.476563 354.082031 C 627.421875 357.066406 622.925781 359.105469 618.128906 360.273438 L 618.128906 364.785156 L 628.28125 370.464844 C 628.996094 370.859375 629.699219 371.28125 630.371094 371.71875 C 630.734375 371.953125 631.183594 372.011719 631.59375 371.882813 C 635.25 370.71875 639.074219 370.121094 642.949219 370.121094 L 653.128906 370.457031 C 656.820313 370.457031 660.472656 370.996094 663.992188 372.0625 C 664.128906 372.105469 664.269531 372.125 664.414063 372.125 C 664.714844 372.125 665.007813 372.027344 665.261719 371.84375 C 665.566406 371.621094 665.851563 371.417969 666.132813 371.226563 L 677.894531 363.082031 L 677.894531 358.894531 C 670.261719 358.609375 662.765625 355.996094 656.65625 351.394531 C 652.261719 348.085938 648.726563 342.300781 646.136719 337.417969 M 664.492188 368.855469 C 664.375 368.941406 664.261719 369.023438 664.140625 369.109375 C 660.5625 368.09375 656.859375 367.582031 653.128906 367.582031 L 642.949219 367.246094 C 639.003906 367.246094 635.109375 367.820313 631.363281 368.941406 C 630.816406 368.597656 630.253906 368.265625 629.683594 367.949219 L 620.339844 362.722656 C 624.941406 361.410156 629.246094 359.292969 633.183594 356.398438 C 638.09375 352.777344 642.128906 346.488281 644.964844 341.160156 C 647.589844 345.390625 650.929688 350.675781 654.925781 353.691406 C 660.757813 358.078125 667.75 360.816406 674.988281 361.597656 "/>
<path style=" stroke:none;fill-rule:nonzero;fill:rgb(50.19989%,51.399231%,52.198792%);fill-opacity:1;" d="M 109.726563 308.628906 C 100.457031 308.628906 97 304.304688 97 297.4375 C 97 291.148438 100.890625 285.480469 109.34375 285.480469 C 114.863281 285.480469 119.238281 287.160156 119.238281 287.160156 L 119.238281 304.449219 L 124.855469 304.449219 L 124.855469 308.628906 Z M 114.097656 290.667969 C 114.097656 290.667969 111.984375 289.660156 108.816406 289.660156 C 104.78125 289.660156 102.332031 292.636719 102.332031 296.957031 C 102.332031 301.902344 104.6875 304.449219 110.351563 304.449219 L 114.097656 304.449219 Z M 105.214844 276.691406 C 106.800781 276.691406 108 277.890625 108 279.476563 C 108 281.011719 106.800781 282.265625 105.214844 282.265625 C 103.625 282.265625 102.476563 281.011719 102.476563 279.476563 C 102.476563 277.988281 103.675781 276.691406 105.214844 276.691406 M 112.515625 276.691406 C 114.003906 276.691406 115.296875 277.941406 115.296875 279.476563 C 115.296875 280.964844 114.050781 282.265625 112.515625 282.265625 C 110.925781 282.265625 109.726563 281.011719 109.726563 279.476563 C 109.726563 277.988281 110.972656 276.691406 112.515625 276.691406 "/>
<path style=" stroke:none;fill-rule:nonzero;fill:rgb(50.19989%,51.399231%,52.198792%);fill-opacity:1;" d="M 124.136719 308.625 C 123.175781 308.625 121.253906 307.859375 121.253906 306.511719 C 121.253906 305.265625 123.175781 304.453125 124.136719 304.453125 L 130.519531 304.453125 L 130.519531 286.054688 L 135.753906 286.054688 L 135.753906 308.625 Z M 129.320313 312.613281 C 130.859375 312.613281 132.105469 313.859375 132.105469 315.402344 C 132.105469 316.886719 130.90625 318.183594 129.320313 318.183594 C 127.78125 318.183594 126.582031 316.9375 126.582031 315.402344 C 126.582031 313.859375 127.78125 312.613281 129.320313 312.613281 M 136.621094 312.613281 C 138.109375 312.613281 139.40625 313.859375 139.40625 315.402344 C 139.40625 316.886719 138.15625 318.183594 136.621094 318.183594 C 135.03125 318.183594 133.832031 316.9375 133.832031 315.402344 C 133.832031 313.859375 135.085938 312.613281 136.621094 312.613281 "/>
<path style=" stroke:none;fill-rule:nonzero;fill:rgb(50.19989%,51.399231%,52.198792%);fill-opacity:1;" d="M 142.574219 304.449219 L 157.464844 304.449219 C 157.222656 296.378906 153.769531 291.722656 145.699219 289.464844 L 146.992188 285.050781 C 157.464844 288.027344 162.652344 293.886719 162.652344 305.886719 L 162.652344 308.628906 L 142.574219 308.628906 "/>
<path style=" stroke:none;fill-rule:nonzero;fill:rgb(50.19989%,51.399231%,52.198792%);fill-opacity:1;" d="M 169.035156 320.054688 L 169.421875 315.6875 C 169.421875 315.6875 173.308594 316.597656 177.007813 316.597656 C 182.101563 316.597656 185.800781 314.675781 185.800781 309.589844 L 185.800781 308.628906 L 181.429688 308.628906 C 172.160156 308.628906 168.703125 304.304688 168.703125 297.441406 C 168.703125 291.148438 172.59375 285.480469 181.042969 285.480469 C 186.566406 285.480469 190.9375 287.160156 190.9375 287.160156 L 190.9375 304.449219 L 196.554688 304.449219 L 196.554688 308.628906 L 190.9375 308.628906 L 190.9375 309.203125 C 190.9375 315.253906 186.949219 320.777344 176.484375 320.777344 C 172.828125 320.777344 169.035156 320.054688 169.035156 320.054688 M 185.800781 290.664063 C 185.800781 290.664063 183.6875 289.660156 180.511719 289.660156 C 176.484375 289.660156 174.03125 292.636719 174.03125 296.957031 C 174.03125 301.902344 176.386719 304.449219 182.054688 304.449219 L 185.800781 304.449219 "/>
<path style=" stroke:none;fill-rule:nonzero;fill:rgb(50.19989%,51.399231%,52.198792%);fill-opacity:1;" d="M 195.835938 308.628906 C 194.878906 308.628906 192.953125 307.859375 192.953125 306.515625 C 192.953125 305.269531 194.878906 304.449219 195.835938 304.449219 L 197.035156 304.449219 C 202.027344 304.449219 206.160156 303.679688 209.378906 302.382813 C 206.113281 299.359375 203.039063 296.046875 198.480469 294.652344 L 198.910156 290.90625 C 202.703125 288.171875 208.03125 285.335938 212.835938 285.335938 C 219.65625 285.335938 222.4375 288.984375 222.4375 293.019531 C 222.4375 296.335938 220.566406 299.835938 217.011719 302.671875 C 218.835938 303.726563 220.855469 304.449219 223.257813 304.449219 L 225.605469 304.449219 L 225.605469 308.628906 L 222.585938 308.628906 C 218.453125 308.628906 215.425781 307.234375 212.835938 305.316406 C 208.707031 307.328125 203.328125 308.628906 196.84375 308.628906 Z M 213.554688 300.078125 C 215.957031 298.203125 217.203125 295.953125 217.203125 293.691406 C 217.203125 291.242188 215.667969 289.273438 212.210938 289.273438 C 209.230469 289.273438 205.773438 291.339844 203.808594 292.683594 C 207.597656 294.175781 210.433594 297.390625 213.554688 300.078125 "/>
<path style=" stroke:none;fill-rule:nonzero;fill:rgb(50.19989%,51.399231%,52.198792%);fill-opacity:1;" d="M 246.835938 305.027344 C 245.972656 307.09375 243.570313 309.015625 239.535156 309.015625 C 236.320313 309.015625 233.917969 307.429688 233.242188 305.027344 C 232.285156 307.328125 230.363281 308.628906 226.8125 308.628906 L 224.890625 308.628906 C 223.929688 308.628906 222.011719 307.859375 222.011719 306.515625 C 222.011719 305.265625 223.929688 304.449219 224.890625 304.449219 L 226.8125 304.449219 C 230.125 304.449219 231.519531 303.058594 231.519531 298.15625 L 231.519531 288.9375 L 236.800781 288.9375 L 236.800781 297.777344 C 236.800781 302.433594 237.089844 304.835938 240.5 304.835938 C 243.234375 304.835938 245.011719 303.25 245.011719 297.820313 L 245.011719 287.015625 L 250.105469 287.015625 L 250.105469 299.214844 C 250.105469 303.679688 251.734375 304.449219 256.585938 304.449219 L 258.023438 304.449219 C 258.265625 302.433594 258.363281 299.835938 258.363281 298.15625 C 258.363281 293.164063 257.738281 288.695313 256.875 285.097656 L 262.011719 284.328125 C 262.972656 288.027344 263.644531 292.78125 263.644531 297.777344 C 263.644531 299.835938 263.546875 302.191406 263.355469 304.449219 L 268.734375 304.449219 L 268.734375 308.628906 L 256.34375 308.628906 C 250.773438 308.628906 248.183594 307.859375 246.835938 305.027344 "/>
<path style=" stroke:none;fill-rule:nonzero;fill:rgb(50.19989%,51.399231%,52.198792%);fill-opacity:1;" d="M 268.015625 308.628906 C 267.058594 308.628906 265.136719 307.859375 265.136719 306.515625 C 265.136719 305.269531 267.058594 304.449219 268.015625 304.449219 L 274.402344 304.449219 L 274.402344 274.773438 L 279.636719 274.773438 L 279.636719 308.628906 "/>
<path style=" stroke:none;fill-rule:nonzero;fill:rgb(50.19989%,51.399231%,52.198792%);fill-opacity:1;" d="M 289.050781 278.804688 C 287.949219 278.613281 286.695313 278.425781 285.449219 278.324219 L 285.449219 275.105469 C 288.230469 274.816406 291.066406 274.625 294.332031 274.722656 L 294.332031 308.625 L 289.050781 308.625 "/>
<path style=" stroke:none;fill-rule:nonzero;fill:rgb(50.19989%,51.399231%,52.198792%);fill-opacity:1;" d="M 326.125 308.628906 C 321.515625 308.628906 319.546875 307.328125 318.199219 305.648438 L 318.199219 308.773438 C 318.34375 315.589844 315.320313 321.257813 306.679688 321.257813 L 306.871094 317.078125 C 312.820313 317.078125 313.0625 312.132813 313.0625 308.628906 L 313.0625 298.300781 C 313.0625 290.671875 317.335938 285.480469 325.257813 285.480469 C 332.417969 285.480469 335.777344 289.5625 335.777344 296.382813 L 335.777344 304.449219 L 339.910156 304.449219 L 339.910156 308.628906 Z M 330.59375 297.101563 C 330.59375 291.820313 328.429688 289.660156 324.78125 289.660156 C 320.796875 289.660156 318.296875 292.636719 318.296875 296.957031 C 318.296875 302 320.699219 304.449219 326.367188 304.449219 L 330.59375 304.449219 "/>
<path style=" stroke:none;fill-rule:nonzero;fill:rgb(50.19989%,51.399231%,52.198792%);fill-opacity:1;" d="M 339.1875 308.628906 C 338.226563 308.628906 336.308594 307.859375 336.308594 306.515625 C 336.308594 305.269531 338.226563 304.449219 339.1875 304.449219 L 341.109375 304.449219 C 344.421875 304.449219 345.8125 303.058594 345.8125 298.160156 L 345.8125 288.9375 L 351.09375 288.9375 L 351.09375 297.773438 C 351.09375 302.433594 351.382813 304.835938 354.796875 304.835938 C 357.53125 304.835938 359.308594 303.246094 359.308594 297.820313 L 359.308594 287.015625 L 364.398438 287.015625 L 364.398438 299.21875 C 364.398438 303.679688 366.035156 304.449219 370.882813 304.449219 L 372.320313 304.449219 C 372.5625 302.433594 372.660156 299.835938 372.660156 298.160156 C 372.660156 293.164063 372.035156 288.695313 371.171875 285.09375 L 376.308594 284.324219 C 377.269531 288.027344 377.941406 292.78125 377.941406 297.773438 C 377.941406 301.136719 377.652344 305.3125 377.21875 308.628906 L 370.640625 308.628906 C 365.070313 308.628906 362.480469 307.859375 361.132813 305.023438 C 360.269531 307.09375 357.867188 309.015625 353.832031 309.015625 C 350.617188 309.015625 348.214844 307.425781 347.546875 305.023438 C 346.582031 307.328125 344.660156 308.628906 341.109375 308.628906 "/>
<path style=" stroke:none;fill-rule:nonzero;fill:rgb(50.19989%,51.399231%,52.198792%);fill-opacity:1;" d="M 386.828125 278.804688 C 385.726563 278.613281 384.472656 278.425781 383.226563 278.324219 L 383.226563 275.105469 C 386.007813 274.816406 388.847656 274.625 392.109375 274.722656 L 392.109375 308.625 L 386.828125 308.625 "/>
<path style=" stroke:none;fill-rule:nonzero;fill:rgb(50.19989%,51.399231%,52.198792%);fill-opacity:1;" d="M 399.601563 320.054688 L 399.984375 315.6875 C 399.984375 315.6875 403.875 316.597656 407.574219 316.597656 C 412.664063 316.597656 416.363281 314.675781 416.363281 309.589844 L 416.363281 308.628906 L 411.992188 308.628906 C 402.726563 308.628906 399.269531 304.304688 399.269531 297.441406 C 399.269531 291.148438 403.15625 285.480469 411.609375 285.480469 C 417.132813 285.480469 421.503906 287.160156 421.503906 287.160156 L 421.503906 304.449219 L 427.117188 304.449219 L 427.117188 308.628906 L 421.503906 308.628906 L 421.503906 309.203125 C 421.503906 315.253906 417.515625 320.777344 407.046875 320.777344 C 403.394531 320.777344 399.601563 320.054688 399.601563 320.054688 M 416.363281 290.664063 C 416.363281 290.664063 414.246094 289.660156 411.078125 289.660156 C 407.046875 289.660156 404.597656 292.636719 404.597656 296.957031 C 404.597656 301.902344 406.949219 304.449219 412.617188 304.449219 L 416.363281 304.449219 "/>
<path style=" stroke:none;fill-rule:nonzero;fill:rgb(50.19989%,51.399231%,52.198792%);fill-opacity:1;" d="M 426.402344 308.628906 C 425.4375 308.628906 423.519531 307.859375 423.519531 306.515625 C 423.519531 305.265625 425.4375 304.449219 426.402344 304.449219 L 430.863281 304.449219 C 432.546875 304.449219 433.605469 304.738281 433.605469 304.738281 C 431.539063 303.347656 430.4375 300.945313 430.4375 297.199219 C 430.4375 291.003906 434.5625 285.480469 442.679688 285.480469 C 449.839844 285.480469 453.195313 289.5625 453.195313 296.382813 L 453.195313 308.628906 Z M 448.058594 297.101563 C 448.058594 291.820313 445.898438 289.660156 442.246094 289.660156 C 438.164063 289.660156 435.71875 292.636719 435.71875 296.957031 C 435.71875 302 438.121094 304.449219 443.789063 304.449219 L 448.058594 304.449219 "/>
<path style=" stroke:none;fill-rule:nonzero;fill:rgb(50.19989%,51.399231%,52.198792%);fill-opacity:1;" d="M 171.726563 334.441406 C 170 333.863281 167.980469 333.53125 166.109375 333.53125 C 162.078125 333.53125 160.109375 335.210938 160.109375 337.898438 C 160.109375 344.480469 174.5625 342.269531 174.5625 352.785156 C 174.5625 358.453125 170.238281 362.582031 162.363281 362.582031 C 159.722656 362.582031 157.078125 362.246094 154.964844 361.722656 L 155.59375 356.675781 C 157.707031 357.492188 160.253906 358.070313 162.699219 358.070313 C 166.347656 358.070313 169.039063 356.675781 169.039063 353.316406 C 169.039063 346.5 154.675781 348.894531 154.675781 338.429688 C 154.675781 333 158.953125 329.207031 166.445313 329.207031 C 168.269531 329.207031 170.480469 329.449219 172.257813 329.828125 "/>
<path style=" stroke:none;fill-rule:nonzero;fill:rgb(50.19989%,51.399231%,52.198792%);fill-opacity:1;" d="M 202.078125 361.722656 C 199.390625 362.054688 195.933594 362.246094 193.097656 362.152344 C 193.097656 360.566406 193.144531 358.980469 193.339844 357.6875 L 193.292969 357.636719 C 192.140625 360.46875 189.160156 362.535156 185.414063 362.535156 C 181.28125 362.535156 178.691406 359.800781 178.691406 355.960938 C 178.691406 350.578125 183.972656 347.695313 192.765625 347.695313 L 192.765625 346.492188 C 192.765625 343.324219 191.5625 341.742188 188.058594 341.742188 C 185.847656 341.742188 183.0625 342.414063 180.804688 343.378906 L 179.941406 339.390625 C 182.578125 338.476563 185.75 337.753906 188.628906 337.753906 C 195.691406 337.753906 197.902344 340.878906 197.902344 346.113281 L 197.902344 358.117188 C 199.054688 358.308594 200.6875 358.5 202.078125 358.597656 Z M 192.765625 351.203125 C 185.65625 351.203125 183.6875 353.074219 183.6875 355.332031 C 183.6875 357.160156 184.9375 358.550781 186.953125 358.550781 C 190.410156 358.550781 192.765625 355.140625 192.765625 351.921875 "/>
<path style=" stroke:none;fill-rule:nonzero;fill:rgb(50.19989%,51.399231%,52.198792%);fill-opacity:1;" d="M 231.710938 361.71875 C 229.023438 362.054688 225.515625 362.246094 222.683594 362.152344 C 222.683594 360.855469 222.78125 358.839844 223.019531 357.398438 L 222.921875 357.398438 C 221.527344 360.472656 218.648438 362.539063 214.660156 362.539063 C 209.1875 362.539063 207.507813 359.128906 207.507813 354.949219 L 207.507813 342.222656 C 206.355469 342.03125 204.71875 341.839844 203.328125 341.742188 L 203.328125 338.617188 C 206.113281 338.285156 209.667969 338.09375 212.644531 338.1875 L 212.644531 353.558594 C 212.644531 356.53125 213.460938 358.261719 216.199219 358.261719 C 219.753906 358.261719 222.441406 354.515625 222.441406 349.714844 L 222.441406 338.238281 L 227.53125 338.238281 L 227.53125 358.117188 C 228.6875 358.308594 230.320313 358.5 231.710938 358.597656 "/>
<path style=" stroke:none;fill-rule:nonzero;fill:rgb(50.19989%,51.399231%,52.198792%);fill-opacity:1;" d="M 259.660156 361.71875 C 257.015625 362.054688 253.46875 362.246094 250.632813 362.152344 C 250.632813 360.808594 250.730469 358.984375 250.96875 357.640625 L 250.875 357.640625 C 249.578125 360.566406 246.742188 362.585938 243.09375 362.585938 C 237.234375 362.585938 234.355469 358.261719 234.355469 351.394531 C 234.355469 343.132813 239.105469 337.851563 246.839844 337.851563 C 247.988281 337.851563 249.097656 337.898438 250.390625 338.089844 L 250.390625 331.035156 C 249.242188 330.839844 247.609375 330.648438 246.21875 330.550781 L 246.21875 327.433594 C 248.902344 327.09375 252.359375 326.902344 255.480469 326.996094 L 255.480469 358.117188 C 256.636719 358.308594 258.269531 358.5 259.660156 358.597656 Z M 250.390625 342.367188 C 249.097656 342.078125 247.847656 341.933594 246.597656 341.933594 C 242.515625 341.933594 239.730469 344.433594 239.730469 350.820313 C 239.730469 355.671875 241.21875 358.359375 244.484375 358.359375 C 248.328125 358.359375 250.390625 353.894531 250.390625 349.714844 "/>
<path style=" stroke:none;fill-rule:nonzero;fill:rgb(50.19989%,51.399231%,52.198792%);fill-opacity:1;" d="M 265.472656 362.101563 L 265.472656 342.222656 C 264.316406 342.03125 262.683594 341.835938 261.292969 341.738281 L 261.292969 338.621094 C 263.984375 338.28125 267.441406 338.089844 270.5625 338.1875 L 270.5625 362.101563 Z M 268.015625 334.011719 C 266.238281 334.011719 264.75 332.617188 264.75 330.839844 C 264.75 329.0625 266.238281 327.574219 268.015625 327.574219 C 269.84375 327.574219 271.328125 329.015625 271.328125 330.839844 C 271.328125 332.566406 269.84375 334.011719 268.015625 334.011719 "/>
<path style=" stroke:none;fill-rule:nonzero;fill:rgb(50.19989%,51.399231%,52.198792%);fill-opacity:1;" d="M 304.035156 334.441406 C 302.308594 333.863281 300.289063 333.53125 298.417969 333.53125 C 294.382813 333.53125 292.414063 335.210938 292.414063 337.898438 C 292.414063 344.480469 306.867188 342.269531 306.867188 352.785156 C 306.867188 358.453125 302.546875 362.582031 294.671875 362.582031 C 292.027344 362.582031 289.390625 362.246094 287.273438 361.722656 L 287.902344 356.675781 C 290.015625 357.492188 292.558594 358.070313 295.007813 358.070313 C 298.65625 358.070313 301.34375 356.675781 301.34375 353.316406 C 301.34375 346.5 286.988281 348.894531 286.988281 338.429688 C 286.988281 333 291.261719 329.207031 298.753906 329.207031 C 300.578125 329.207031 302.789063 329.449219 304.566406 329.828125 "/>
<path style=" stroke:none;fill-rule:nonzero;fill:rgb(50.19989%,51.399231%,52.198792%);fill-opacity:1;" d="M 330.640625 361.097656 C 327.996094 362.007813 325.070313 362.539063 322.28125 362.539063 C 314.839844 362.539063 310.761719 358.742188 310.761719 350.335938 C 310.761719 343.183594 314.839844 337.804688 321.757813 337.804688 C 328.574219 337.804688 331.40625 342.273438 331.40625 347.742188 C 331.40625 349.378906 331.265625 350.914063 331.265625 350.914063 L 315.992188 350.914063 C 315.945313 356.003906 318.15625 358.503906 322.90625 358.503906 C 325.261719 358.503906 327.613281 358.070313 330.0625 357.253906 Z M 326.269531 347.410156 C 326.367188 343.617188 324.492188 341.597656 321.46875 341.597656 C 318.585938 341.597656 316.472656 343.710938 316.089844 347.410156 "/>
<path style=" stroke:none;fill-rule:nonzero;fill:rgb(50.19989%,51.399231%,52.198792%);fill-opacity:1;" d="M 358.878906 361.722656 C 356.1875 362.054688 352.730469 362.246094 349.898438 362.152344 C 349.898438 360.566406 349.945313 358.980469 350.140625 357.6875 L 350.089844 357.636719 C 348.9375 360.46875 345.960938 362.535156 342.214844 362.535156 C 338.082031 362.535156 335.488281 359.800781 335.488281 355.960938 C 335.488281 350.578125 340.773438 347.695313 349.5625 347.695313 L 349.5625 346.492188 C 349.5625 343.324219 348.363281 341.742188 344.859375 341.742188 C 342.648438 341.742188 339.859375 342.414063 337.601563 343.378906 L 336.738281 339.390625 C 339.378906 338.476563 342.550781 337.753906 345.429688 337.753906 C 352.488281 337.753906 354.699219 340.878906 354.699219 346.113281 L 354.699219 358.117188 C 355.855469 358.308594 357.488281 358.5 358.878906 358.597656 Z M 349.5625 351.203125 C 342.457031 351.203125 340.484375 353.074219 340.484375 355.332031 C 340.484375 357.160156 341.734375 358.550781 343.75 358.550781 C 347.207031 358.550781 349.5625 355.140625 349.5625 351.921875 "/>
<path style=" stroke:none;fill-rule:nonzero;fill:rgb(50.19989%,51.399231%,52.198792%);fill-opacity:1;" d="M 375.6875 342.363281 C 374.34375 341.933594 372.707031 341.648438 371.171875 341.648438 C 368.4375 341.648438 367.046875 342.746094 367.046875 344.476563 C 367.046875 349.136719 377.707031 346.878906 377.707031 355.042969 C 377.707031 359.226563 374.296875 362.539063 367.617188 362.539063 C 365.648438 362.539063 363.589844 362.296875 362.046875 361.910156 L 362.386719 357.539063 C 363.921875 358.117188 366.128906 358.5 367.957031 358.5 C 370.785156 358.5 372.375 357.394531 372.375 355.523438 C 372.375 350.769531 361.808594 353.125 361.808594 344.910156 C 361.808594 340.972656 364.980469 337.753906 371.507813 337.753906 C 372.996094 337.753906 374.628906 337.949219 376.023438 338.1875 "/>
<path style=" stroke:none;fill-rule:nonzero;fill:rgb(50.19989%,51.399231%,52.198792%);fill-opacity:1;" d="M 392.542969 362.535156 C 385.917969 362.535156 381.59375 358.789063 381.59375 350.628906 C 381.59375 343.378906 385.773438 337.800781 393.410156 337.800781 C 400.082031 337.800781 404.40625 341.554688 404.40625 349.714844 C 404.40625 356.964844 400.226563 362.535156 392.542969 362.535156 M 393.074219 342.078125 C 389.328125 342.078125 386.875 344.8125 386.875 350.140625 C 386.875 355.378906 389.132813 358.210938 392.976563 358.210938 C 396.480469 358.210938 399.078125 355.71875 399.078125 350.195313 C 399.078125 344.960938 396.816406 342.078125 393.074219 342.078125 "/>
<path style=" stroke:none;fill-rule:nonzero;fill:rgb(50.19989%,51.399231%,52.198792%);fill-opacity:1;" d="M 426.257813 362.101563 L 426.257813 346.78125 C 426.257813 343.804688 425.441406 342.078125 422.699219 342.078125 C 419.097656 342.078125 416.414063 345.824219 416.414063 350.628906 L 416.414063 362.101563 L 411.324219 362.101563 L 411.324219 342.222656 C 410.167969 342.027344 408.535156 341.835938 407.144531 341.738281 L 407.144531 338.621094 C 409.835938 338.28125 413.292969 338.089844 416.21875 338.1875 C 416.21875 339.53125 416.125 341.546875 415.835938 342.945313 L 415.929688 342.945313 C 417.324219 339.867188 420.207031 337.800781 424.191406 337.800781 C 429.617188 337.800781 431.347656 341.210938 431.347656 345.390625 L 431.347656 362.101563 "/>
<path style=" stroke:none;fill-rule:nonzero;fill:rgb(50.19989%,51.399231%,52.198792%);fill-opacity:1;" d="M 451.179688 342.363281 C 449.835938 341.933594 448.203125 341.648438 446.667969 341.648438 C 443.929688 341.648438 442.539063 342.746094 442.539063 344.476563 C 442.539063 349.136719 453.199219 346.878906 453.199219 355.042969 C 453.199219 359.226563 449.789063 362.539063 443.113281 362.539063 C 441.144531 362.539063 439.082031 362.296875 437.539063 361.910156 L 437.882813 357.539063 C 439.417969 358.117188 441.628906 358.5 443.453125 358.5 C 446.285156 358.5 447.867188 357.394531 447.867188 355.523438 C 447.867188 350.769531 437.304688 353.125 437.304688 344.910156 C 437.304688 340.972656 440.472656 337.753906 447.003906 337.753906 C 448.492188 337.753906 450.125 337.949219 451.515625 338.1875 "/>
</g>
</svg>
